<svg width="11" height="21" viewBox="0 0 11 21" fill="none" xmlns="http://www.w3.org/2000/svg">
<path d="M10.7273 1.68725C10.8176 1.59178 10.8881 1.47947 10.9349 1.35674C10.9817 1.23401 11.0039 1.10327 11.0002 0.971965C10.9965 0.840663 10.9669 0.711378 10.9133 0.591492C10.8596 0.471606 10.7828 0.363467 10.6873 0.273249C10.5919 0.183031 10.4796 0.112501 10.3568 0.0656852C10.2341 0.0188697 10.1034 -0.00331434 9.97206 0.000400002C9.84076 0.00411435 9.71147 0.0336542 9.59159 0.0873329C9.4717 0.141012 9.36356 0.217778 9.27334 0.313249L0.773343 9.31325C0.597806 9.49892 0.5 9.74474 0.5 10.0002C0.5 10.2558 0.597806 10.5016 0.773343 10.6872L9.27334 19.6882C9.36296 19.7858 9.47108 19.8646 9.59141 19.92C9.71173 19.9754 9.84187 20.0064 9.97427 20.0111C10.1067 20.0158 10.2387 19.9942 10.3626 19.9474C10.4866 19.9007 10.6 19.8298 10.6963 19.7388C10.7927 19.6479 10.8699 19.5387 10.9237 19.4176C10.9775 19.2965 11.0067 19.166 11.0095 19.0335C11.0124 18.9011 10.989 18.7694 10.9405 18.6461C10.8921 18.5228 10.8196 18.4103 10.7273 18.3153L2.87534 10.0002L10.7273 1.68725Z" fill="black"/>
</svg>
